<svg width="118" height="90" viewBox="0 0 118 90" fill="none" xmlns="http://www.w3.org/2000/svg">
<g clip-path="url(#clip0_259_716)">
<path d="M37.6709 0.356042C38.8058 1.39854 38.3417 2.49354 35.0618 6.43854C33.0706 8.47438 31.5232 10.8727 30.5105 13.4923L30.4598 13.6385C30.0971 14.9435 30.2297 14.981 31.6298 13.9723C33.5247 12.6291 35.5234 11.4269 37.6085 10.376L37.8698 10.256C38.6966 9.83979 40.4594 8.98854 40.5296 8.98854C40.5998 8.98854 40.9001 8.83104 41.3018 8.64729C43.6061 7.55039 46.0426 6.73167 48.5558 6.20979L48.7703 6.17229C52.0541 5.81229 54.1328 7.31229 53.3645 9.47229C53.0252 10.4285 52.4519 10.8148 50.1158 11.6285C48.7313 12.116 48.1034 12.3448 47.6471 12.5285L46.2431 13.1285C44.8042 13.7076 43.4075 14.3791 42.0623 15.1385L42.23 15.0485C40.8787 15.8256 39.5847 16.6915 38.3573 17.6398L38.4236 17.591C37.4895 18.3034 36.6229 19.094 35.834 19.9535L35.8145 19.976C35.9003 20.1073 36.5243 20.0848 37.1015 19.9235C40.8469 19.1897 44.6852 18.9975 48.4895 19.3535L48.3335 19.3423C56.4455 20.3135 63.9335 25.2898 61.7963 28.316C60.8603 29.6585 59.8073 29.7185 57.401 28.5785C53.9378 26.6533 50.0056 25.6453 46.0052 25.6573C43.7978 25.6573 41.6684 25.9573 39.6482 26.516L39.8081 26.4785C37.3901 27.161 37.3823 27.3785 39.7769 27.4798C40.3775 27.491 40.9508 27.536 41.5202 27.6073L41.4422 27.5998C41.7191 27.6673 42.0506 27.7235 42.3938 27.7573L42.4211 27.761C43.5014 27.8998 44.4686 28.1098 45.3968 28.3948L45.2759 28.361C47.3306 28.8721 49.2789 29.7181 51.0362 30.8623L50.9699 30.821C53.3099 32.4935 55.2989 34.4623 56.9213 36.6935L56.9759 36.776C59.5421 40.0985 59.8502 43.5485 57.6272 44.2535C56.231 44.696 55.3886 44.1073 53.8832 41.6285C53.0421 39.9273 51.7989 38.4388 50.2529 37.2817C48.707 36.1247 46.9011 35.3313 44.9795 34.9648L44.9015 34.9535C43.8351 34.7999 42.7483 34.8368 41.6957 35.0623L41.7542 35.051C33.572 36.1498 29.0051 45.9673 34.5626 50.516C36.753 52.0544 39.3967 52.8807 42.1091 52.8748C45.9896 52.8748 49.4684 51.221 51.824 48.6035L51.8396 48.5885C54.4487 45.7835 55.6616 45.1123 57.0734 45.6935C60.131 46.9573 56.0399 53.7785 50.2289 57.0935C49.6946 57.3935 47.339 58.4848 46.7696 58.6873L45.7673 59.0435C45.5216 59.1298 45.0887 59.2535 44.8157 59.3435L43.5677 59.6698C38.9291 60.6165 34.1807 60.9696 29.4458 60.7198L29.5823 60.7273C21.1583 60.8773 20.1443 61.1173 15.6437 64.0273C14.3567 64.8546 13.094 65.7162 11.8568 66.611C10.6751 67.4473 10.7219 67.4473 9.39202 66.7085C6.55814 65.2802 4.21363 63.0951 2.64035 60.4162C1.06706 57.7372 0.331961 54.6784 0.523423 51.6073L0.519523 51.6523C0.589723 50.546 0.519523 50.651 2.04052 49.631C5.44912 47.3435 11.3069 43.0723 11.5565 42.6935C11.6423 42.566 12.4262 38.846 12.5471 38.0398C12.5796 37.7923 12.6331 37.5477 12.707 37.3085L12.6992 37.3385C12.7694 37.1285 12.8318 36.866 12.8786 36.5998L12.8825 36.566C12.9644 36.1048 13.2491 34.7923 13.6937 32.831C14.5478 29.3773 15.4448 26.5423 16.49 23.7785L16.3028 24.3448C16.4567 24.0112 16.6011 23.6735 16.7357 23.3323C19.9254 15.5297 24.8319 8.48241 31.1189 2.67354L31.1384 2.65479C34.0166 0.356042 36.653 -0.592708 37.6592 0.329792L37.6709 0.356042ZM108.826 23.2235C111.003 24.338 112.907 25.8873 114.41 27.7675C115.912 29.6478 116.979 31.8154 117.539 34.1248L117.562 34.2373C117.797 35.8027 117.869 37.3869 117.777 38.966L117.781 38.906C117.695 39.4535 117.676 39.4685 113.623 42.1835C112.902 42.671 110.878 44.126 109.879 44.8835C109.447 45.206 108.67 45.7835 108.14 46.196C106.966 47.0735 106.58 47.4673 106.58 47.8123C106.58 47.9548 106.416 48.8098 106.225 49.7135C106.034 50.6173 105.808 51.6785 105.734 52.076C105.108 55.2727 104.339 58.4419 103.429 61.5748C102.439 64.8498 101.121 68.0247 99.4937 71.0548C97.6958 74.516 95.8277 77.4635 93.7412 80.2498L93.8777 80.0548L92.774 81.5173C88.211 87.5548 81.854 91.586 80.4071 89.3548C79.7051 88.2635 80.2043 87.2548 83.1956 83.6548C84.3851 82.316 85.5161 80.8348 86.5301 79.2785L86.6276 79.121C86.7134 78.9635 86.8889 78.6335 87.0254 78.3973C87.5486 77.48 87.8985 76.4808 88.0589 75.446L88.0667 75.3973C87.9926 75.1723 87.6884 75.2998 86.9045 75.8735C84.3266 77.6923 81.4055 79.376 78.3245 80.7898L77.993 80.9248L76.6748 81.5248C75.5321 82.031 72.7475 83.066 71.7725 83.3473C70.7208 83.786 69.5729 83.9689 68.4302 83.8798H68.4536C66.6284 83.8198 65.5754 83.3398 65.0411 82.331C64.795 81.7416 64.7848 81.0854 65.0124 80.4891C65.24 79.8928 65.6893 79.3987 66.2735 79.1023L66.2891 79.0948C66.6323 78.9298 67.0691 78.7498 67.5176 78.5923L67.6112 78.5623C68.5784 78.236 70.037 77.7148 70.2203 77.6323C70.5003 77.5097 70.7838 77.3946 71.0705 77.2873C75.0886 75.8001 78.7603 73.562 81.8735 70.7023L81.8618 70.7135C82.5287 70.0873 82.6847 69.761 82.2752 69.8511C80.8868 70.1848 79.1552 70.4848 77.3963 70.6873L77.1857 70.706C73.8091 71.0075 70.4047 70.8229 67.0847 70.1585L67.307 70.196C59.78 68.4373 54.4136 64.001 56.699 61.4173C57.7559 60.2173 58.4813 60.2623 61.4453 61.6535C61.9484 61.9123 62.5763 62.1935 63.2198 62.4448L63.3524 62.4898C63.4421 62.4935 63.524 62.5273 63.5903 62.5798C64.4756 62.951 65.5559 63.3073 66.6674 63.5885L66.8312 63.6223C68.5082 64.1023 70.4309 64.3798 72.4238 64.3798C74.3621 64.3798 76.238 64.1173 78.0164 63.626L77.8721 63.6598C79.7129 63.1423 79.9352 63.0598 80.0951 62.8573C80.3135 62.5835 80.1146 62.5235 78.9524 62.5085C76.0622 62.4102 73.2107 61.8382 70.5206 60.8173L70.6922 60.8735C68.1413 59.8243 65.8461 58.2751 63.953 56.3248L63.9413 56.3135C63.6293 55.976 63.3173 55.631 63.2354 55.5523C61.5568 53.7597 60.2337 51.6868 59.3315 49.436L59.2847 49.301C58.6607 46.871 60.1193 45.0785 62.159 45.8135C62.8844 46.076 63.2939 46.511 64.1363 47.9323C67.8062 54.0898 72.6773 56.3323 78.4298 54.4798C80.996 53.701 83.173 52.0387 84.5433 49.8118C85.9136 47.5849 86.3808 44.95 85.8554 42.4123L85.8671 42.4798C84.5645 38.1823 77.9657 35.8798 72.2171 37.7435C69.4001 38.6853 66.9422 40.4189 65.162 42.7198L65.1347 42.7573C63.8711 44.081 63.29 44.3885 62.0927 44.3885C60.3845 44.3885 59.6357 43.0423 60.4235 41.3885C60.5104 41.2223 60.5821 41.0491 60.638 40.871L60.6419 40.8485C61.106 39.8173 61.6169 38.936 62.2019 38.111L62.1629 38.1673C63.5127 36.2937 65.2231 34.686 67.2017 33.431L67.2719 33.3898C71.0834 31.1054 75.4285 29.7737 79.9118 29.516L79.9898 29.5123C80.4578 29.4673 84.8804 29.3548 91.4714 29.2123C94.3546 29.3533 97.2306 28.8246 99.8564 27.671L99.7433 27.716C102.241 26.3256 104.637 24.7733 106.915 23.0698L106.775 23.171C107.52 22.571 107.629 22.5898 108.823 23.2535L108.826 23.2235Z" fill="#E6E6E6"/>
</g>
<defs>
<clipPath id="clip0_259_716">
<rect width="117" height="90" fill="white" transform="translate(0.5)"/>
</clipPath>
</defs>
</svg>
